<?xml version="1.0" encoding="UTF-8"?>
<svg id="Layer_7" data-name="Layer 7" xmlns="http://www.w3.org/2000/svg" xmlns:xlink="http://www.w3.org/1999/xlink" viewBox="0 0 195.84 119.11">
  <defs>
    <style>
      .cls-1 {
        fill: none;
      }

      .cls-2 {
        fill: #010101;
      }

      .cls-3 {
        clip-path: url(#clippath);
      }
    </style>
    <clipPath id="clippath">
      <rect class="cls-1" x="3.16" y="33.11" width="58.29" height="56.58"/>
    </clipPath>
  </defs>
  <g>
    <path class="cls-2" d="M10.65,119.03c-.24.01-.48.02-.72.02-.71,0-1.37-.09-1.98-.27s-1.09-.38-1.44-.61c-.35-.23-.66-.49-.94-.79-.28-.3-.46-.51-.53-.65-.08-.13-.14-.24-.19-.33l2.08-.93-.02-.02c.03.05.06.11.11.19s.17.2.36.36c.19.17.41.3.66.42.25.11.59.21,1.02.3.43.08.91.1,1.43.05.46-.03.86-.09,1.2-.19.34-.1.6-.21.77-.31.17-.11.31-.24.43-.4.11-.16.18-.28.21-.36.03-.08.05-.19.08-.31.06-.36-.03-.68-.27-.97-.48-.57-1.37-.86-2.65-.86-1.03,0-1.95-.16-2.75-.48-.81-.32-1.46-.77-1.95-1.35-.69-.83-.93-1.73-.74-2.71.08-.39.2-.76.38-1.1.18-.34.44-.69.78-1.03.34-.34.82-.63,1.43-.86.61-.23,1.33-.37,2.15-.44.83-.06,1.59-.02,2.29.14.7.16,1.24.36,1.64.59.39.24.75.51,1.07.84.32.32.52.56.61.7.09.14.15.26.19.36l-2.06.93.02.04c-.03-.05-.07-.11-.12-.19-.06-.08-.18-.2-.37-.36-.19-.17-.41-.31-.65-.43s-.58-.22-1.01-.3c-.43-.08-.91-.1-1.43-.06-.46.04-.86.1-1.2.2-.34.1-.6.2-.78.3-.18.11-.32.24-.43.4-.11.16-.18.28-.21.36-.03.08-.05.19-.07.31-.06.28.03.56.27.84.56.67,1.54,1.01,2.95,1.01,1.99,0,3.46.56,4.4,1.68.69.84.93,1.79.74,2.84-.08.39-.2.76-.38,1.11-.18.34-.44.69-.79,1.03-.35.34-.83.63-1.44.86-.61.23-1.32.37-2.13.44Z"/>
    <path class="cls-2" d="M39.88,105.52h2.27v13.34h-2.27v-10.42l-4.34,10.42h-2.57l-4.34-10.42v10.42h-2.27v-13.34h3.51l4.38,10.56,4.4-10.56h1.24Z"/>
    <path class="cls-2" d="M58.16,105.52h2.48l5.55,13.34h-2.67c-.43-.71-1.01-1.28-1.74-1.7-.73-.42-1.53-.63-2.39-.63s-1.66.21-2.39.63c-.73.42-1.31.98-1.74,1.7h-2.65.02-.02c.06-.19.15-.39.27-.61l5.3-12.73ZM59.38,114.16c.89,0,1.75.16,2.59.48l-2.57-6.19-2.57,6.19c.83-.32,1.68-.48,2.55-.48Z"/>
    <path class="cls-2" d="M87.26,109.41c0,.88-.26,1.66-.79,2.35-.53.69-1.2,1.15-2.03,1.38l3.62,5.72h-2.67l-3.54-5.56h-2.97v5.56h-2.27v-13.34h6.77c1.07,0,1.98.38,2.74,1.14s1.14,1.68,1.14,2.74ZM78.87,107.79v3.24h4.5c.44,0,.83-.16,1.14-.48s.48-.7.48-1.14-.16-.83-.48-1.14c-.32-.32-.7-.48-1.14-.48h-4.5Z"/>
    <path class="cls-2" d="M109.27,107.79h-4.63v11.07h-2.27v-11.07h-4.65v-2.27h11.55v2.27Z"/>
    <path class="cls-2" d="M142.27,107.64c-.62,0-1.22.12-1.78.36-.57.24-1.05.57-1.46.97-.41.41-.73.89-.97,1.46-.24.57-.36,1.16-.36,1.78,0,1.27.45,2.35,1.34,3.25.9.9,1.97,1.34,3.23,1.34.46,0,.9-.07,1.33-.2.43-.13.83-.32,1.19-.56.36-.24.68-.53.96-.86l1.98,1.14c-.64.84-1.43,1.5-2.38,1.99s-1.98.73-3.09.73c-1.23,0-2.38-.3-3.43-.91-1.05-.61-1.89-1.44-2.5-2.49-.61-1.05-.91-2.19-.91-3.43s.3-2.39.91-3.44c.61-1.05,1.44-1.89,2.5-2.5,1.05-.61,2.2-.92,3.43-.92,1.11,0,2.13.25,3.09.73.95.49,1.75,1.15,2.4,1.99l-2,1.16c-.42-.51-.93-.91-1.54-1.19-.61-.29-1.26-.43-1.94-.43Z"/>
    <path class="cls-2" d="M167.46,113.36v-7.83h2.27v7.83c0,1.59-.57,2.94-1.7,4.07-1.13,1.12-2.49,1.69-4.08,1.69s-2.94-.56-4.07-1.69c-1.12-1.12-1.69-2.48-1.69-4.07v-7.83h2.27v7.83c0,.47.09.92.28,1.35.18.43.43.8.74,1.11.31.31.68.56,1.11.74.43.18.88.28,1.35.28.97,0,1.79-.34,2.48-1.02.69-.68,1.03-1.5,1.03-2.47Z"/>
    <path class="cls-2" d="M190.47,106.67c.76.76,1.14,1.68,1.14,2.75s-.38,1.99-1.14,2.74-1.68,1.13-2.74,1.13h-4.5v5.56h-2.27v-13.34h6.77c1.07,0,1.98.38,2.74,1.14ZM183.22,107.79v3.24h4.5c.44,0,.83-.16,1.14-.48s.48-.7.48-1.14-.16-.83-.48-1.14c-.32-.32-.7-.48-1.14-.48h-4.5Z"/>
  </g>
  <g>
    <g>
      <path class="cls-2" d="M98.78,31.81c7.8,0,14.47,2.77,20.01,8.3,5.53,5.53,8.29,12.2,8.29,20v32.17h-13.52v-32.17c0-4.09-1.44-7.6-4.32-10.51-2.88-2.92-6.37-4.38-10.46-4.38s-7.6,1.46-10.51,4.38c-2.92,2.92-4.38,6.42-4.38,10.51v32.17h-13.53v-60.13l10,6.36c5.3-4.47,11.44-6.7,18.41-6.7Z"/>
      <path class="cls-2" d="M195.04,68.97h-46.48c1.29,3.18,3.41,5.78,6.37,7.79,2.95,2.01,6.21,3.01,9.77,3.01,4.48,0,8.38-1.52,11.71-4.55l12.05,6.93c-2.88,3.49-6.38,6.21-10.51,8.18-4.13,1.97-8.55,2.96-13.25,2.96-8.56,0-15.87-3.05-21.94-9.15-6.06-6.1-9.09-13.43-9.09-21.99s3.03-15.87,9.09-21.94c6.07-6.06,13.38-9.09,21.94-9.09,4.7,0,9.12.99,13.25,2.96,4.13,1.97,7.64,4.66,10.51,8.07,3.33,3.94,5.53,8.37,6.59,13.3.53,2.2.8,4.45.8,6.76s-.27,4.57-.8,6.76ZM164.7,44.65c-3.56,0-6.82.99-9.77,2.96-2.96,1.97-5.08,4.58-6.37,7.84h32.39c-.99-2.43-2.5-4.55-4.55-6.37-3.33-2.95-7.23-4.43-11.71-4.43Z"/>
    </g>
    <g>
      <g>
        <path class="cls-2" d="M31.78,29.62C14.26,29.62,0,43.88,0,61.4s14.26,31.77,31.78,31.77,31.77-14.25,31.77-31.77-14.25-31.78-31.77-31.78ZM31.78,89c-15.21,0-27.6-12.38-27.6-27.59s12.39-27.6,27.6-27.6,27.59,12.38,27.59,27.6-12.38,27.59-27.59,27.59Z"/>
        <g class="cls-3">
          <path class="cls-2" d="M26.96,50.76v.42c0,.09.03.17.08.24.11.18.33.45.44.45.14,0,1.96.37,3.11-.42.34-.23.6-.38.8-.47.28-.12.59.1.57.41-.02.37-.03.83.04,1,.12.29.06.78,1.58.71.09,0,.18.02.25.07.45.3,2.13,1.4,3.08,1.47.24.02.44-.18.43-.42,0-.54.07-1.57.7-1.88.07-.04.15-.05.23-.03.4.06,1.84.29,2.68.65.22.1.48-.03.55-.26.15-.52.36-1.34.31-1.91-.02-.24-.23-.41-.46-.38-.41.05-1.06,0-.97-.97,0-.03,0-.05.02-.08.07-.24.5-1.52,1.58-1.47.08,0,.16-.02.23-.07.25-.16.74-.57.28-1,0,0-1.31-1.34-3.06-.97-.06.01-.11.04-.16.07-.23.18-.85.8-.87,2.42,0,.25-.22.44-.47.41-.13-.02-.28-.03-.4-.02-.23.02-.4.22-.38.45.04.4.03,1.17-.54,1.26,0,0-.84.48-.83-1,0-.08-.02-.17-.07-.24-.12-.18-.36-.46-.53-.12-.04.09-.05.18-.03.28.09.36.25,1.44-1,.97-.04-.02-.09-.03-.14-.03-.15,0-.56-.11-.57-1.26,0-.19-.13-.36-.31-.4-.42-.1-1.16-.33-1.55-.69-.06-.05-.09-.12-.12-.19-.09-.32-.52-1.29-1.95.21-.03.03-.05.06-.07.1-.12.24-.7,1.28-2.3,2.33-.12.08-.19.21-.19.35"/>
          <path class="cls-2" d="M53.84,40.34c-5.08-4.82-12.27-7.23-21.58-7.23-2.14,0-4.17.13-6.09.39,2.09-.11,3.77,0,4.68.1.34.03.49.45.26.7-.51.56-1.41,1.29-2.52,1.27-1.79-.04-1.64.6-1.9,1.8-.26,1.2-2.68,1.83-2.59,1.44.05-.22.05-.55.03-.78-.02-.24-.23-.41-.47-.38-.82.11-2.52.94-3.77,1.27-1.58.41-.48-1.63-.48-1.63.6-.97-1.09-1.75-1.17-.17-.07,1.35-.58,1.48-.73,1.49-.03,0-.07,0-.1.02-2.06.67-2.37,2.94-2.24,3.96.11.87-1.12.67-1.5.59-.07-.01-.13-.05-.19-.09-.09-.08-.17-.14-.24-.2-.21-.16-.51-.08-.62.17-.14.32-.26.24-.26.24-2.72-.3-3.01.42-3.01.42-.52.94-1.48,1.48-2.2,1.77-.16.06-.3.02-.41-.07-2.31,4.09-3.5,9.18-3.59,15.23.12-.92.28-1.85.5-2.81.06-.25.33-.39.57-.28.51.22,1.28.63,1.43,1.09.23.69-.4,2.25.74,2.89.92.51.65,2.14.52,2.76-.03.15.02.3.13.4.63.55,2.61,2.37,2.63,3.59,0,0-.01.47,1.58,1.05.01,0,.03.01.04.02.16.08,1.07.57.82,1.4-.27.91-1,1.69-1,2.57,0,.83.38,2.57.84,3.33.09.14.09.33-.02.47-.08.1-.21.21-.43.32-.17.08-.26.27-.22.46.22,1.04.83,4.17.24,4.81-.14.15-.64-.11-1.34-.73.18.18.35.36.53.54,5.05,4.79,12.23,7.19,21.54,7.19s16.51-2.41,21.58-7.23c5.07-4.82,7.61-11.84,7.61-21.06s-2.54-16.24-7.61-21.06M27.18,44.18s-.21-.12-.23-.12-.54-.26-.3-.59c.25-.34.42.11.69-.3.27-.41-.38-.64-.53-.73-.15-.09-.24-.98.1-1.33.15-.16.37-.21.56-.22.17-.01.32.11.4.26.02.04.08.07.19.07.33-.02-.23.78-.23.78l.17.06c.15.03.3.65.36.97.02.1.09.18.17.24.33.23.74,1.06.23,1.02-.58-.04-1.95.54-1.95.54,0,0-.57.25-.55.08.02-.18.91-.7.91-.72M25.38,42.38c.09-.1.23-.14.37-.12.78.13.49.5.49.5,0,0,.32.25-.85.49-.92.19-.31-.54,0-.87M57.8,60.12c-.86-1.34-1.74-3.81-1.97-4.47-.04-.11-.11-.2-.2-.27-.81-.62-1.05-1.27-1.12-1.65-.04-.22-.27-.44-.48-.48-.58-.12-.8.34-1.43.41-.77.09-2.54-1.04-3.28-1.01-.74.03-2,.16.2,1.85,2.2,1.69,1,.25,1.97.02.7-.17,1.3.61,1.58,1.05.11.18.12.4.02.59-1.76,3.41-2.72,4.5-3.29,4.86-.3.2-.65.06-.75-.29-.91-3.18-3.46-3.78-4.66-4.68-.43-.32-1,.16-.76.65,1.78,3.52,4.16,5.04,4.7,5.73.4.51,1.77.03,2.67-.37.41-.18.87.15.81.6-.33,2.86-3.53,6.04-4.04,6.6-.47.52-.41,4.18-.38,5.48,0,.25-.14.49-.38.57-2.87.97-2.79,3.78-2.73,4.47.02.15-.02.31-.12.43-.42.49-1.47.51-1.47.51-.64.09-1.87,1.51-1.87,1.51-.62.56-1.6.65-2,.66-.11,0-.23.04-.32.11-1.41.98-2.24.8-2.62.58-.17-.1-.27-.28-.28-.48l-.04-.84c0-.14-.06-.27-.15-.37-.19-.21-.49-.6-.39-.89.1-.32.02-1.04-.03-1.38-.02-.13-.07-.24-.16-.33l-.92-.96c-.12-.12-.18-.29-.16-.46l.11-1.4c.01-.17.11-.33.24-.43.6-.48.71-.95.72-1.21,0-.12-.04-.24-.11-.34-1.35-1.92-2.27-4.09-2.58-4.86-.07-.17-.05-.37.05-.53.87-1.39-.58-1.62-1.22-1.65-.17,0-.34-.1-.44-.24-1.04-1.48-2.22-.81-2.5-.62-.05.02-.11.05-.16.08-7.99,2.36-7.35-6.65-7.35-6.65l.19-2.95c0-.08.02-.16.06-.23.26-.55,1.58-2.96,5.38-5.01.7-.38-.07-1.44-.63-1.78-.18-.11-.25-.34-.16-.54.11-.23.16-.53.18-.77.02-.22.16-.4.36-.49.26-.11.43-.33.53-.48.08-.13.21-.22.35-.25.41-.09.68.09.81.21.09.08.2.14.32.16.32.03.41-.15.43-.31.01-.12-.02-.23-.08-.33-.23-.35-.32-.92-.36-1.32-.03-.32.2-.61.52-.64.18-.02.36-.01.49,0,.14,0,.28-.04.39-.13.4-.32,1.4-1.08,2.09-1.3.31-.1.39-.37.56-.46.4-.22.86-.32,1.31-.26,1,.14,1.7.35,2.16.35.5,0,.45-2.57.43-3.2,0-.1-.03-.19-.08-.28-.51-.89-1.02-.23-1.22.1-.06.09-.09.2-.08.32.02,1.14.15,1.64-.54,2.07-.44.27-.68-.15-.8-.53-.08-.25-.31-.42-.57-.41-.45.02-.76-.12-.76-.12-1.03-.3-.54-1.57-.27-2.11.08-.16.22-.26.39-.31,1.46-.39,1.97-.95,2.13-1.18.06-.08.14-.15.23-.2,1.19-.57,2.05-.13,3.07-.12.75.01.8.75.77,1.2-.03.43.4.76.8.59.01,0,.03-.01.04-.02.16-.08.28-.23.32-.4.11-.48.39-1.53.85-1.81.28-.17.19-.57.02-.95-.18-.4.12-.86.56-.84,13.67.43,18.48,14.08,17.74,17.55-.63,2.97.15,4.36.42,4.74.07.09.11.2.11.32.03.49-.04,1.3-.11,1.98-.06.55-.77.72-1.07.26"/>
        </g>
      </g>
      <g>
        <path class="cls-2" d="M46.94,27.32c-9.49-5.12-20.82-5.12-30.31,0l-1.65-3.07c10.53-5.68,23.09-5.68,33.62,0l-1.65,3.07Z"/>
        <path class="cls-2" d="M53.59,18.96c-13.65-7.37-29.96-7.37-43.62,0l-1.65-3.07c14.69-7.93,32.23-7.93,46.93,0l-1.65,3.07Z"/>
        <path class="cls-2" d="M59.86,10.6C42.28,1.11,21.28,1.11,3.7,10.6l-1.65-3.07C20.67-2.51,42.89-2.51,61.51,7.53l-1.65,3.07Z"/>
      </g>
    </g>
  </g>
</svg>